<svg xmlns="http://www.w3.org/2000/svg" viewBox="0 0 128 160" x="0px" y="0px"><title>apartment, hotel, residence, building, construction, institution, city</title><path d="M124.917,127.25H3.083a1.25,1.25,0,1,1,0-2.5H124.917a1.25,1.25,0,0,1,0,2.5Z"/><path d="M124.917,127.25H3.083a1.25,1.25,0,1,1,0-2.5H124.917a1.25,1.25,0,0,1,0,2.5Z"/><path d="M4.28,52H5.99v.01H122.01V52h1.71c.88,0,1.4-1.2.93-2.12l-4.8-8.12a2.778,2.778,0,0,0-2.23-1.52H10.38a2.778,2.778,0,0,0-2.23,1.52l-4.8,8.12C2.88,50.8,3.4,52,4.28,52Z"/><path d="M5.99,94.96V126h9.88V115.011h3.617V126a1.25,1.25,0,0,0,2.5,0V115.011H25.61V126h10.7V115.088h3.623V126a1.25,1.25,0,0,0,2.5,0V115.089H46.05V126h8.74a2.305,2.305,0,0,1,0-4.61H73.22a2.305,2.305,0,0,1,0,4.61h8.73V115.089h3.617V126a1.25,1.25,0,0,0,2.5,0V115.089H91.69V126h10.7V115.01h3.623V126a1.25,1.25,0,0,0,2.5,0V115.011h3.617V126h9.88V94.96Zm13.5,17.551H15.87V106.18a4.578,4.578,0,0,1,3.617-4.475Zm6.123,0H21.987V101.7a4.578,4.578,0,0,1,3.623,4.476Zm14.323.078H36.31v-6.33a4.578,4.578,0,0,1,3.623-4.476Zm6.117,0H42.433v-10.8a4.579,4.579,0,0,1,3.617,4.475Zm9.89,6.3V106.96a8.06,8.06,0,1,1,16.12,0v11.924Zm29.627-6.3H81.95V106.26a4.579,4.579,0,0,1,3.617-4.475Zm6.123,0H88.067v-10.8a4.578,4.578,0,0,1,3.623,4.476Zm14.323-.079H102.39V106.18a4.578,4.578,0,0,1,3.623-4.476Zm6.117,0h-3.617V101.705a4.578,4.578,0,0,1,3.617,4.475Z"/><path d="M122.77,86.48h-.76V54.51H5.99V86.48H5.25a2.99,2.99,0,1,0,0,5.98H122.77a2.99,2.99,0,1,0,0-5.98ZM19.921,80.42H16.3V70.266h3.621Zm0-12.653H16.3V63.93a1,1,0,0,1,1-1h2.621ZM26.04,80.42H22.421V70.267H26.04Zm0-12.653H22.421V62.93H25.04a1,1,0,0,1,1,1Zm15.3,12.653H37.72V70.267h3.618Zm0-12.653H37.72V63.93a1,1,0,0,1,1-1h2.618ZM47.46,80.42H43.838V70.267H47.46Zm0-12.653H43.838V62.93H46.46a1,1,0,0,1,1,1Zm15.3,12.653H59.14V70.267h3.616Zm0-12.653H59.14V63.93a.99.99,0,0,1,1-1h2.616Zm-.514-9.719a1.8,1.8,0,1,1,1.8,1.8A1.8,1.8,0,0,1,62.242,58.048ZM68.88,80.42H65.256V70.267H68.88Zm0-12.652H65.256V62.93H67.88a1,1,0,0,1,1,1ZM84.174,80.42H80.55V70.266h3.624Zm0-12.653H80.55V63.93a1,1,0,0,1,1-1h2.624ZM90.29,80.42H86.674V70.267H90.29Zm0-12.653H86.674V62.93H89.29a.99.99,0,0,1,1,1Zm15.3,12.653H101.97V70.266h3.622Zm0-12.653H101.97V63.93a1,1,0,0,1,1-1h2.622ZM111.71,80.42h-3.618V70.267h3.618Zm0-12.653h-3.618V62.93h2.618a1,1,0,0,1,1,1Z"/></svg>