<svg xmlns="http://www.w3.org/2000/svg" xmlns:xlink="http://www.w3.org/1999/xlink" version="1.1" x="0px" y="0px" viewBox="0 0 128 160" style="enable-background:new 0 0 128 128;" xml:space="preserve"><style type="text/css">
	.st0{display:none;}
	.st1{display:inline;}
	.st2{fill:none;stroke:#000000;stroke-width:0.1;stroke-miterlimit:10;}
</style><g class="st0"><g class="st1"><rect class="st2" width="128" height="128"/><line class="st2" x1="0" y1="124" x2="128" y2="124"/><line class="st2" x1="0" y1="120" x2="128" y2="120"/><line class="st2" x1="0" y1="116" x2="128" y2="116"/><line class="st2" x1="0" y1="112" x2="128" y2="112"/><line class="st2" x1="0" y1="108" x2="128" y2="108"/><line class="st2" x1="0" y1="104" x2="128" y2="104"/><line class="st2" x1="0" y1="100" x2="128" y2="100"/><line class="st2" x1="0" y1="96" x2="128" y2="96"/><line class="st2" x1="0" y1="92" x2="128" y2="92"/><line class="st2" x1="0" y1="88" x2="128" y2="88"/><line class="st2" x1="0" y1="84" x2="128" y2="84"/><line class="st2" x1="0" y1="80" x2="128" y2="80"/><line class="st2" x1="0" y1="76" x2="128" y2="76"/><line class="st2" x1="0" y1="72" x2="128" y2="72"/><line class="st2" x1="0" y1="68" x2="128" y2="68"/><line class="st2" x1="0" y1="64" x2="128" y2="64"/><line class="st2" x1="0" y1="60" x2="128" y2="60"/><line class="st2" x1="0" y1="56" x2="128" y2="56"/><line class="st2" x1="0" y1="52" x2="128" y2="52"/><line class="st2" x1="0" y1="48" x2="128" y2="48"/><line class="st2" x1="0" y1="44" x2="128" y2="44"/><line class="st2" x1="0" y1="40" x2="128" y2="40"/><line class="st2" x1="0" y1="36" x2="128" y2="36"/><line class="st2" x1="0" y1="32" x2="128" y2="32"/><line class="st2" x1="0" y1="28" x2="128" y2="28"/><line class="st2" x1="0" y1="24" x2="128" y2="24"/><line class="st2" x1="0" y1="20" x2="128" y2="20"/><line class="st2" x1="0" y1="16" x2="128" y2="16"/><line class="st2" x1="0" y1="12" x2="128" y2="12"/><line class="st2" x1="0" y1="8" x2="128" y2="8"/><line class="st2" x1="0" y1="4" x2="128" y2="4"/><line class="st2" x1="124" y1="0" x2="124" y2="128"/><line class="st2" x1="120" y1="0" x2="120" y2="128"/><line class="st2" x1="116" y1="0" x2="116" y2="128"/><line class="st2" x1="112" y1="0" x2="112" y2="128"/><line class="st2" x1="108" y1="0" x2="108" y2="128"/><line class="st2" x1="104" y1="0" x2="104" y2="128"/><line class="st2" x1="100" y1="0" x2="100" y2="128"/><line class="st2" x1="96" y1="0" x2="96" y2="128"/><line class="st2" x1="92" y1="0" x2="92" y2="128"/><line class="st2" x1="88" y1="0" x2="88" y2="128"/><line class="st2" x1="84" y1="0" x2="84" y2="128"/><line class="st2" x1="80" y1="0" x2="80" y2="128"/><line class="st2" x1="76" y1="0" x2="76" y2="128"/><line class="st2" x1="72" y1="0" x2="72" y2="128"/><line class="st2" x1="68" y1="0" x2="68" y2="128"/><line class="st2" x1="64" y1="0" x2="64" y2="128"/><line class="st2" x1="60" y1="0" x2="60" y2="128"/><line class="st2" x1="56" y1="0" x2="56" y2="128"/><line class="st2" x1="52" y1="0" x2="52" y2="128"/><line class="st2" x1="48" y1="0" x2="48" y2="128"/><line class="st2" x1="44" y1="0" x2="44" y2="128"/><line class="st2" x1="40" y1="0" x2="40" y2="128"/><line class="st2" x1="36" y1="0" x2="36" y2="128"/><line class="st2" x1="32" y1="0" x2="32" y2="128"/><line class="st2" x1="28" y1="0" x2="28" y2="128"/><line class="st2" x1="24" y1="0" x2="24" y2="128"/><line class="st2" x1="20" y1="0" x2="20" y2="128"/><line class="st2" x1="16" y1="0" x2="16" y2="128"/><line class="st2" x1="12" y1="0" x2="12" y2="128"/><line class="st2" x1="8" y1="0" x2="8" y2="128"/><line class="st2" x1="4" y1="0" x2="4" y2="128"/></g></g><g><g><path d="M52.4,78.7L41,71.8c-0.1-0.1-0.2-0.1-0.3-0.2c-0.5,0-0.9,0.3-1.2,0.7c-0.2,0.3-0.3,0.7-0.2,1.1    c0.1,0.4,0.3,0.7,0.7,0.9l10.4,6.3l1.5-0.8C52.1,79.4,52.2,79,52.4,78.7z"/><path d="M42.5,70.2l11.2,6.7c0.7-0.8,1.4-1.3,2.1-1.7l-12.4-7.4c-0.5-0.3-1.1-0.1-1.3,0.3l-0.5,0.8    c-0.2,0.3-0.2,0.7,0,1C42,69.9,42.2,70,42.5,70.2z"/><path d="M54,79.7c-0.2,0.3-0.3,0.6-0.4,1l0,1.8l15.3,9.2c-0.1-0.9,0-1.9,0.4-2.8L54,79.7z"/><path d="M55.4,77.9L70.4,87c0.3-0.3,0.6-0.6,1-0.9L71.3,86c0.2-0.1,0.5-0.3,0.7-0.4c0.1,0,0.1-0.1,0.2-0.1    c0.2-0.1,0.3-0.2,0.5-0.2l-14.9-8.9C57.1,76.6,56.2,77.1,55.4,77.9z"/><path d="M64,7C32.6,7,7,32.6,7,64c0,31.4,25.6,57,57,57s57-25.6,57-57C121,32.6,95.4,7,64,7z M78.5,92.5    c-0.6,0.7-1.6,1.2-2.7,1.3L75.6,92c0.4,0,1-0.2,1.5-0.7c0.8-0.9,0.5-2.5-0.2-3.4c-0.8-0.9-2.4-1.3-3.9-0.6    c-0.6,0.4-1.1,0.9-1.5,1.4l-0.1,0.2c-0.8,1.4-0.8,3,0,4.3l1.9,3.2L53.5,84.6l-0.1,5.3L51.6,90l-1-6.2l-5.9,2l-0.8-1.7l4.6-2.6    L39.1,76c-0.8-0.5-1.3-1.2-1.5-2.1c-0.2-0.9-0.1-1.8,0.4-2.5c0.4-0.7,1-1.2,1.8-1.4c-0.1-0.7,0-1.4,0.3-2l0.5-0.8    c0.8-1.4,2.6-1.8,3.9-1l32.1,19.3c0.7,0.3,1.3,0.7,1.8,1.3C79.6,88.2,80,90.8,78.5,92.5z M83,53.7l-19,5.8l-19-5.8v-5.8l19,5.6    L83,47.9V53.7z M64,50.9l-22.3-6.7v9.9l0.1,0v4.5L36,61.3v-6l3.4-0.7v-11l-5.8-1.7L64,31.5l30.4,10.3L64,50.9z"/></g></g></svg>