<svg xmlns="http://www.w3.org/2000/svg" xmlns:xlink="http://www.w3.org/1999/xlink" version="1.1" x="0px" y="0px" viewBox="0 0 482 602.5" style="enable-background:new 0 0 482 482;" xml:space="preserve"><style type="text/css">
	.st0{fill-rule:evenodd;clip-rule:evenodd;}
</style><path class="st0" d="M242.4,400.9c-54.5,0-105.2-27.2-135.3-72.7c0.7-44.7,90.2-69.3,135.3-69.3c44.9,0,134.5,24.6,135.3,69.3  C347.6,373.6,296.9,400.9,242.4,400.9 M242.4,80.8c37.4,0,67.6,30.2,67.6,67.6c0,37.4-30.2,67.6-67.6,67.6s-67.6-30.2-67.6-67.6  C174.8,111,205.1,80.8,242.4,80.8 M242.4,13.2C118.1,13.2,17,114.2,17,238.6S118.1,464,242.4,464s225.4-101.1,225.4-225.4  S366.8,13.2,242.4,13.2"/></svg>