<svg xmlns="http://www.w3.org/2000/svg" viewBox="0 0 96 120" x="0px" y="0px"><title>Artboard 24</title><g><path d="M86.9316,24.23l-38-16a2.0131,2.0131,0,0,0-1.8632,0l-38,16A1.9991,1.9991,0,0,0,8,25.9993v4a1.9989,1.9989,0,0,0,2,2H86a1.9989,1.9989,0,0,0,2-2v-4A1.9991,1.9991,0,0,0,86.9316,24.23Z"/><rect x="50" y="59.9993" width="14" height="28"/><rect x="32" y="59.9993" width="14" height="28"/><path d="M12,85.9993a1.9989,1.9989,0,0,0,2,2H28v-30a1.9988,1.9988,0,0,1,2-2H66a1.9988,1.9988,0,0,1,2,2v30H82a1.9989,1.9989,0,0,0,2-2v-50H12Zm18-42H66a2,2,0,0,1,0,4H30a2,2,0,0,1,0-4Z"/></g></svg>