<svg xmlns="http://www.w3.org/2000/svg" xmlns:xlink="http://www.w3.org/1999/xlink" version="1.1" x="0px" y="0px" viewBox="0 0 128 160" style="enable-background:new 0 0 128 128;" xml:space="preserve"><g><path d="M95.7,59.1c0-0.5-0.4-1-0.9-1.1v-3.5c0.8-0.4,0.7-1.5-0.2-1.8l-31-8.3c-0.2,0-0.3,0-0.5,0l-31,8.3c-0.9,0.3-0.9,1.6,0,1.8   l12,3.2v16.6c1.1-0.2,2.3-0.3,3.4-0.3c6.6,0,12.5,2.3,15.8,6.7l0,0l0,0c3.4-4.3,9.2-6.7,15.8-6.7c1.2,0,2.3,0.1,3.4,0.3V57.8   l11.6-3.1V58c-0.5,0.1-0.9,0.6-0.9,1.1c0,0.4,0.2,0.8,0.5,1c-0.4,1.3-1.3,5.3-1.3,8.6c0,0,0.4,0.7,2,0.7c1.6-0.1,2-0.7,2-0.7   c0-3.3-1-7.3-1.4-8.6C95.5,59.9,95.7,59.5,95.7,59.1z M78.4,69.8c-5.7,0.2-11,1.6-15,4.9c-4-3.3-9.3-4.7-15-4.9V58.9l14.8,4   c0.2,0,0.3,0,0.5,0l14.8-4V69.8z"/><path d="M113.5,91c0.1-0.4,0.1-0.9,0.1-1.4V35.5c0-5-3.8-9.1-8.5-9.1h-4.4h-4H22.9c-4.7,0-8.5,4.1-8.5,9.1v54.1   c0,0.5,0,0.9,0.1,1.4H2.4v1.4c0,5.1,3.8,9.1,8.5,9.1h106.3c4.7,0,8.5-4.1,8.5-9.1V91H113.5z M105.5,90.9H74.6   c-0.1,2.6-2.3,4.7-4.9,4.7H58.5c-2.7,0-4.8-2.1-4.9-4.7H22.5V34.2h75.2h2h5.9V90.9z"/></g></svg>