<svg xmlns:dc="http://purl.org/dc/elements/1.1/" xmlns:cc="http://creativecommons.org/ns#" xmlns:rdf="http://www.w3.org/1999/02/22-rdf-syntax-ns#" xmlns:svg="http://www.w3.org/2000/svg" xmlns="http://www.w3.org/2000/svg" xmlns:sodipodi="http://sodipodi.sourceforge.net/DTD/sodipodi-0.dtd" xmlns:inkscape="http://www.inkscape.org/namespaces/inkscape" version="1.1" x="0px" y="0px" viewBox="0 0 100 125"><g transform="translate(0,-952.36218)"><path d="m 31.56266,959.36227 0,20.3438 c -0.51329,-0.6891 -1.0077,-1.3645 -1.531,-2 -1.87203,-2.2736 -4.03058,-4.3438 -7.03009,-4.3438 -0.21152,0 -0.42332,0.03 -0.62489,0.094 -2.6201,0.8734 -5.12863,0.8734 -7.74872,0 -0.36838,-0.1494 -0.69258,-0.06 -1.03108,-0.063 -3.37945,0.6761 -6.04321,3.2869 -8.09242,6.1563 -2.01302,2.8187 -3.41821,5.8643 -3.46817,8.65632 l -0.0312,0 0,0.1562 -0.99984,12.84381 c -0.0859,1.098 0.89854,2.1594 1.99967,2.1562 l 3.99934,0 c 0.99692,0 1.92172,-0.8498 1.99967,-1.8438 l 0,1.8438 c 1.1e-4,1.0472 0.95267,1.9999 1.99967,2 l 14.99752,0 c 1.047,-1e-4 1.99957,-0.9528 1.99967,-2 l 0,-13.59381 2.46834,2.875 c 0.28066,0.3293 0.67095,0.5636 1.09357,0.6563 l 0,10.06251 c 1.1e-4,1.0472 0.95267,1.9999 1.99967,2 l 59.990084,0 c 1.047,-1e-4 1.99957,-0.9528 1.99967,-2 l 0,-44.00003 c -1e-4,-1.0472 -0.95267,-1.9999 -1.99967,-2 l -59.990084,0 c -1.13677,0.028 -1.97617,1.1387 -1.99967,2.0002 z m -12.56043,-1.0312 c -3.84167,0 -6.99884,3.1889 -6.99884,7.0312 0,3.8423 3.15717,7 6.99884,7 3.84167,0 6.99885,-3.1577 6.99885,-7 0,-3.8423 -3.15718,-7.0312 -6.99885,-7.0312 z m 16.55977,3.0312 55.990744,0 0,40.00003 -55.990744,0 0,-8.53121 9.74838,-1.5 c 0.92866,-0.147 1.68402,-1.0284 1.68722,-1.9688 l 0,-4.00002 c 0.005,-1.1127 -1.07951,-2.1042 -2.18713,-2 l -9.24847,0.8438 z m -15.55993,47.96883 c -3.84167,0 -6.99885,3.1889 -6.99885,7.0312 0,3.8423 3.15718,7 6.99885,7 3.84167,0 6.99884,-3.1577 6.99884,-7 0,-3.8423 -3.15717,-7.0312 -6.99884,-7.0312 z m 31.994714,0 c -3.841674,0 -6.998844,3.1889 -6.998844,7.0312 0,3.8423 3.15717,7 6.998844,7 3.84167,0 6.99884,-3.1577 6.99884,-7 0,-3.8423 -3.15717,-7.0312 -6.99884,-7.0312 z m 31.99472,0 c -3.84168,0 -6.99885,3.1889 -6.99885,7.0312 0,3.8423 3.15717,7 6.99885,7 3.84166,0 6.99884,-3.1577 6.99884,-7 0,-3.8423 -3.15718,-7.0312 -6.99884,-7.0312 z M 8.81642,1024.3623 c -0.90494,0.079 -1.70198,0.8482 -1.8122,1.75 l -1.99967,17 c -0.10093,0.9079 0.50539,1.8451 1.37477,2.125 3.12597,1.0422 7.40155,2.125 13.62275,2.125 6.22119,0 10.49677,-1.0828 13.62275,-2.125 0.86938,-0.2799 1.4757,-1.2171 1.37477,-2.125 l -1.99967,-17 c -0.12115,-0.9613 -1.03099,-1.7575 -1.99967,-1.75 -2.76621,0 -4.88594,0.5521 -6.59266,1.0625 -1.70672,0.5104 -2.96192,0.9375 -4.43677,0.9375 -1.46405,0 -2.70916,-0.4268 -4.40552,-0.9375 -2.50859,-0.6228 -4.67965,-1.0484 -6.74888,-1.0625 z m 31.99471,0 c -0.90494,0.079 -1.70198,0.8482 -1.8122,1.75 l -1.99967,17 c -0.10093,0.9079 0.50539,1.8451 1.37477,2.125 3.12597,1.0422 7.40155,2.125 13.622754,2.125 6.22119,0 10.49677,-1.0828 13.62274,-2.125 0.86938,-0.2799 1.47571,-1.2171 1.37478,-2.125 l -1.99967,-17 c -0.12114,-0.9613 -1.03098,-1.7575 -1.99966,-1.75 -2.76622,0 -4.88595,0.5521 -6.59267,1.0625 -1.70672,0.5104 -2.96192,0.9375 -4.43677,0.9375 -1.464054,0 -2.709164,-0.4268 -4.405524,-0.9375 -2.50859,-0.6228 -4.67965,-1.0484 -6.74888,-1.0625 z m 31.994714,0 c -0.90494,0.079 -1.70198,0.8482 -1.8122,1.75 l -1.99967,17 c -0.10093,0.9079 0.5054,1.8451 1.37478,2.125 3.12597,1.0422 7.40155,2.125 13.62275,2.125 6.22118,0 10.49676,-1.0828 13.62274,-2.125 0.86938,-0.2799 1.4757,-1.2171 1.37477,-2.125 l -1.99967,-17 c -0.12114,-0.9613 -1.03098,-1.7575 -1.99966,-1.75 -2.76621,0 -4.88595,0.5521 -6.59267,1.0625 -1.70672,0.5104 -2.96191,0.9375 -4.43677,0.9375 -1.46405,0 -2.70916,-0.4268 -4.40551,-0.9375 -2.5086,-0.6228 -4.67965,-1.0484 -6.74889,-1.0625 z m -62.021004,4.1562 c 1.31705,0.1568 2.49208,0.4092 3.6244,0.75 1.62517,0.4893 3.36858,1.0938 5.56158,1.0938 2.20022,0 3.95551,-0.604 5.59283,-1.0938 1.14079,-0.3411 2.33438,-0.593 3.65564,-0.75 l 1.59349,13.3438 c -2.67536,0.7877 -5.9204,1.5 -10.81071,1.5 -4.89031,0 -8.13536,-0.7123 -10.81072,-1.5 z m 31.99471,0 c 1.31705,0.1568 2.49208,0.4092 3.6244,0.75 1.62517,0.4893 3.36858,1.0938 5.561584,1.0938 2.20022,0 3.95551,-0.604 5.59283,-1.0938 1.14079,-0.3411 2.33439,-0.593 3.65565,-0.75 l 1.59348,13.3438 c -2.67536,0.7877 -5.9204,1.5 -10.81071,1.5 -4.890314,0 -8.135364,-0.7123 -10.810714,-1.5 z m 31.994714,0 c 1.31705,0.1568 2.49208,0.4092 3.6244,0.75 1.62518,0.4893 3.36859,1.0938 5.56158,1.0938 2.20022,0 3.95551,-0.604 5.59283,-1.0938 1.14079,-0.3411 2.33439,-0.593 3.65565,-0.75 l 1.59348,13.3438 c -2.67536,0.7877 -5.9204,1.5 -10.8107,1.5 -4.89032,0 -8.13536,-0.7123 -10.81072,-1.5 z" style="text-indent:0;text-transform:none;direction:ltr;block-progression:tb;baseline-shift:baseline;color:#000000;enable-background:accumulate;" fill="#000000" fill-opacity="1" stroke="none" marker="none" visibility="visible" display="inline" overflow="visible"/></g></svg>